<?xml version="1.0" encoding="UTF-8" standalone="no"?><!DOCTYPE svg PUBLIC "-//W3C//DTD SVG 1.1//EN" "http://www.w3.org/Graphics/SVG/1.1/DTD/svg11.dtd"><svg width="100%" height="100%" viewBox="0 0 300 150" version="1.1" xmlns="http://www.w3.org/2000/svg" xmlns:xlink="http://www.w3.org/1999/xlink" xml:space="preserve" style="fill-rule:evenodd;clip-rule:evenodd;stroke-linejoin:round;stroke-miterlimit:1.41421;"><rect id="Artboard1" x="0" y="0" width="300" height="150" style="fill:none;"/><clipPath id="_clip1"><rect id="Artboard11" x="0" y="0" width="300" height="150"/></clipPath><g clip-path="url(#_clip1)"><g><g><path d="M129.515,139.379l-42.94,0l0,-65.315l48.828,0c3.684,0 7.066,1.176 10.146,3.528c3.382,2.473 5.073,5.488 5.073,9.047l0,8.865c0,0.965 -0.604,2.563 -1.812,4.794c-0.664,1.207 -1.902,2.654 -3.714,4.343l-1.178,1.085l-0.815,0.542c2.476,1.147 4.499,3.077 6.07,5.791c1.147,1.99 1.721,3.498 1.721,4.522l0,8.776c0,4.222 -2.386,7.901 -7.157,11.037c-1.691,1.145 -4.076,1.989 -7.156,2.532c-2.175,0.423 -3.835,0.574 -4.983,0.453l-2.083,0Zm-23.372,-39.044l24.278,0l0,-9.331l-24.278,0l0,9.331Zm0,21.922l24.278,0l0,-10.236l-24.278,0l0,10.236Z" style="fill:#bfbfbf;fill-rule:nonzero;"/><path d="M177.618,85.116l-18.934,0l0,-11.052l18.934,0l0,11.052Zm0,54.263l-18.934,0l0,-48.375l18.934,0l0,48.375Z" style="fill:#bfbfbf;fill-rule:nonzero;"/><path d="M235.504,139.379l-50.096,0l0,-8.358c0,-5.208 2.386,-9.357 7.157,-12.447l17.484,-11.264l-24.641,0l0,-16.306l49.915,0l0,8.398c0,4.214 -2.187,7.796 -6.562,10.746l-19.111,12.925l25.854,0l0,16.306Z" style="fill:#bfbfbf;fill-rule:nonzero;"/></g><path d="M248.668,70.023l-20.24,6.856l-5.116,-15.101c-0.165,-0.49 -0.192,-1.26 -0.081,-2.311c0.804,-7.52 5.925,-12.879 15.363,-16.076l27.371,-9.272c3.566,-1.208 7.208,-1.155 10.926,0.157c3.928,1.475 6.485,3.96 7.669,7.456l3.552,10.487c2.345,6.921 -0.624,13.226 -8.906,18.916c-5.002,3.409 -6.959,6.721 -5.869,9.937l1.598,4.72l-21.917,7.424l-1.564,-4.614c-0.284,-0.839 -0.441,-1.994 -0.472,-3.464c-0.146,-6.185 1.894,-11.319 6.123,-15.401l6.106,-4.407c3.769,-2.679 5.167,-5.452 4.196,-8.319l-0.71,-2.097l-20.764,7.034l2.735,8.075Zm35.255,42.301l-21.918,7.424l-6.394,-18.876l21.918,-7.425l6.394,18.877Z" style="fill:#bfbfbf;fill-rule:nonzero;"/><g><path d="M27.46,71.737l-13.803,0.763l-2.545,-46.074l13.803,-0.763l0.963,17.446l17.701,-0.978l-0.963,-17.446l13.803,-0.762l2.545,46.074l-13.803,0.762l-1.034,-18.723l-17.701,0.978l1.034,18.723Z" style="fill:#bfbfbf;fill-rule:nonzero;"/><path d="M68.414,65.993c-3.254,-1.736 -5.148,-4.293 -5.682,-7.671l-2.031,-12.857c-0.34,-2.153 -0.082,-4.217 0.772,-6.191c0.855,-1.974 2.212,-3.498 4.073,-4.57c1.346,-0.776 3.073,-1.33 5.18,-1.663l16.815,-2.656c1.771,-0.279 3.544,-0.062 5.32,0.653c1.775,0.715 3.145,1.797 4.108,3.246c0.735,1.096 1.265,2.678 1.592,4.747l2.031,12.857c0.84,5.32 -0.649,9.018 -4.468,11.092c-1.114,0.609 -2.724,1.079 -4.831,1.412l-17.005,2.686c-1.981,0.313 -3.939,-0.049 -5.874,-1.085Zm7.364,-10.813l11.505,-1.817l-1.737,-11l-11.506,1.817l1.738,11Z" style="fill:#bfbfbf;fill-rule:nonzero;"/><path d="M113.96,60.454l-12.852,-32.963l13.74,-1.519l6.859,17.787l2.492,-18.82l9.478,-1.047l6.414,17.835l2.874,-18.862l13.931,-1.539l-6.165,35.065l-13.732,1.518l-6.483,-19.733l-2.814,20.76l-13.742,1.518Z" style="fill:#bfbfbf;fill-rule:nonzero;"/><path d="M165.366,26.816l-1.335,-8.579l0.092,-7.656l6.405,0.076l-0.091,7.656l-1.602,8.544l-3.469,-0.041Z" style="fill:#bfbfbf;fill-rule:nonzero;"/><path d="M205.245,60.659l-29.349,-4.93l1.909,-11.361l25.436,4.273l0.413,-2.461l-16.662,-2.8c-2.104,-0.353 -3.752,-1.106 -4.943,-2.258c-2.115,-2.086 -2.936,-4.538 -2.463,-7.358l0.743,-4.418c0.176,-1.052 0.539,-1.921 1.087,-2.608l0.991,-1.261c2.001,-1.87 4.222,-2.6 6.663,-2.19l25.119,4.22l-1.908,11.361l-18.998,-3.192l-0.403,2.399l18.745,3.149c1.683,0.283 2.951,1.364 3.804,3.243c0.468,1.077 0.638,1.995 0.51,2.754l-1.5,8.928c-0.262,1.562 -1.264,2.891 -3.006,3.987c-0.92,0.584 -2.05,0.872 -3.39,0.864c-0.561,-0.008 -1.494,-0.122 -2.798,-0.341Z" style="fill:#bfbfbf;fill-rule:nonzero;"/></g></g></g></svg>