<?xml version="1.0" encoding="UTF-8" standalone="no"?>
<!DOCTYPE svg PUBLIC "-//W3C//DTD SVG 1.1//EN" "http://www.w3.org/Graphics/SVG/1.1/DTD/svg11.dtd">
<svg width="100%" height="100%" viewBox="0 0 300 150" version="1.1" xmlns="http://www.w3.org/2000/svg" xmlns:xlink="http://www.w3.org/1999/xlink" xml:space="preserve" style="fill-rule:evenodd;clip-rule:evenodd;stroke-linejoin:round;stroke-miterlimit:1.41421;">
    <g transform="matrix(1,0,0,1,-317,0)">
        <g id="sHHH.21." transform="matrix(1,0,0,1,317,0)">
            <rect x="0" y="0" width="300" height="150" style="fill:none;"/>
            <g transform="matrix(1,0,0,1,-3.13795,7.15812)">
                <g transform="matrix(1.65064,-0.578716,0.578716,1.65064,-420.552,271.112)">
                    <path d="M407.316,27.425L403.156,6.881L403.156,-2.527L416.532,-2.527L416.532,7.137L412.82,27.425L407.316,27.425ZM416.532,43.617L403.156,43.617L403.156,32.097L416.532,32.097L416.532,43.617Z" style="fill:rgb(102,102,102);fill-rule:nonzero;"/>
                </g>
                <g transform="matrix(1.14281,0,0,1.14281,-29.4259,-79.8965)">
                    <g transform="matrix(0.998477,-0.0551608,0.0551608,0.998477,35.3122,39.8141)">
                        <path d="M59.62,122.493L45.796,122.493L45.796,76.349L59.62,76.349L59.62,93.821L77.348,93.821L77.348,76.349L91.172,76.349L91.172,122.493L77.348,122.493L77.348,103.741L59.62,103.741L59.62,122.493Z" style="fill:rgb(102,102,102);fill-rule:nonzero;"/>
                    </g>
                    <g transform="matrix(0.998477,-0.0551608,0.0551608,0.998477,86.3122,29.8076)">
                        <path d="M59.62,122.493L45.796,122.493L45.796,76.349L59.62,76.349L59.62,93.821L77.348,93.821L77.348,76.349L91.172,76.349L91.172,122.493L77.348,122.493L77.348,103.741L59.62,103.741L59.62,122.493Z" style="fill:rgb(102,102,102);fill-rule:nonzero;"/>
                    </g>
                    <g transform="matrix(0.998477,-0.0551608,0.0551608,0.998477,136.312,39.8141)">
                        <path d="M59.62,122.493L45.796,122.493L45.796,76.349L59.62,76.349L59.62,93.821L77.348,93.821L77.348,76.349L91.172,76.349L91.172,122.493L77.348,122.493L77.348,103.741L59.62,103.741L59.62,122.493Z" style="fill:rgb(102,102,102);fill-rule:nonzero;"/>
                    </g>
                    <g transform="matrix(0.986179,0.165684,-0.165684,0.986179,-149.757,0.801958)">
                        <path d="M237.843,105.115L208.083,105.115L208.083,93.595L233.875,93.595L233.875,91.099L216.979,91.099C214.846,91.099 213.096,90.63 211.731,89.691C209.299,87.985 208.083,85.702 208.083,82.843L208.083,78.363C208.083,77.297 208.296,76.379 208.723,75.611L209.491,74.203C211.155,72.027 213.224,70.939 215.699,70.939L241.171,70.939L241.171,82.459L221.907,82.459L221.907,84.891L240.915,84.891C242.622,84.891 244.051,85.747 245.203,87.459C245.843,88.444 246.163,89.321 246.163,90.091L246.163,99.144C246.163,100.728 245.395,102.205 243.859,103.574C243.048,104.302 241.982,104.773 240.659,104.987C240.104,105.073 239.166,105.115 237.843,105.115Z" style="fill:rgb(102,102,102);fill-rule:nonzero;"/>
                    </g>
                </g>
            </g>
        </g>
    </g>
</svg>
